<?xml version="1.0" standalone="no"?><!DOCTYPE svg PUBLIC "-//W3C//DTD SVG 1.1//EN" "http://www.w3.org/Graphics/SVG/1.1/DTD/svg11.dtd"><svg t="1590548257068" class="icon" viewBox="0 0 1024 1024" version="1.1" xmlns="http://www.w3.org/2000/svg" p-id="9954" xmlns:xlink="http://www.w3.org/1999/xlink" width="200" height="200"><defs><style type="text/css"></style></defs><path d="M811.428571 73.142857q13.142857 0 25.142857 5.142857 18.857143 7.428571 30 23.428571t11.142857 35.428571l0 736.571429q0 19.428571-11.142857 35.428571t-30 23.428571q-10.857143 4.571429-25.142857 4.571429-27.428571 0-47.428571-18.285714l-252-242.285714-252 242.285714q-20.571429 18.857143-47.428571 18.857143-13.142857 0-25.142857-5.142857-18.857143-7.428571-30-23.428571t-11.142857-35.428571l0-736.571429q0-19.428571 11.142857-35.428571t30-23.428571q12-5.142857 25.142857-5.142857l598.857143 0z" p-id="9955" fill="#ffffff"></path></svg>