<?xml version="1.0" standalone="no"?><!DOCTYPE svg PUBLIC "-//W3C//DTD SVG 1.1//EN" "http://www.w3.org/Graphics/SVG/1.1/DTD/svg11.dtd"><svg t="1590548057879" class="icon" viewBox="0 0 1024 1024" version="1.1" xmlns="http://www.w3.org/2000/svg" p-id="8124" xmlns:xlink="http://www.w3.org/1999/xlink" width="200" height="200"><defs><style type="text/css"></style></defs><path d="M80.571429 559.428571l405.714286-405.714286q10.857143-10.857143 25.714286-10.857143t25.714286 10.857143l405.714286 405.714286q10.857143 10.857143 7.428571 18.285714t-18.285714 7.428571l-841.142857 0q-14.857143 0-18.285714-7.428571t7.428571-18.285714zm833.714286 318.285714l-804.571429 0q-14.857143 0-25.714286-10.857143t-10.857143-25.714286l0-146.285714q0-14.857143 10.857143-25.714286t25.714286-10.857143l804.571429 0q14.857143 0 25.714286 10.857143t10.857143 25.714286l0 146.285714q0 14.857143-10.857143 25.714286t-25.714286 10.857143z" p-id="8125" fill="#ffffff"></path></svg>