<?xml version="1.0" standalone="no"?><!DOCTYPE svg PUBLIC "-//W3C//DTD SVG 1.1//EN" "http://www.w3.org/Graphics/SVG/1.1/DTD/svg11.dtd"><svg t="1590548228699" class="icon" viewBox="0 0 1024 1024" version="1.1" xmlns="http://www.w3.org/2000/svg" p-id="9746" xmlns:xlink="http://www.w3.org/1999/xlink" width="200" height="200"><defs><style type="text/css"></style></defs><path d="M512 73.142857q119.428571 0 220.285714 58.857143t159.714286 159.714286 58.857143 220.285714-58.857143 220.285714-159.714286 159.714286-220.285714 58.857143-220.285714-58.857143-159.714286-159.714286-58.857143-220.285714 58.857143-220.285714 159.714286-159.714286 220.285714-58.857143zm219.428571 470.285714q18.285714-10.285714 18.285714-31.428571t-18.285714-31.428571l-310.857143-182.857143q-17.714286-10.857143-36.571429-0.571429-18.285714 10.857143-18.285714 32l0 365.714286q0 21.142857 18.285714 32 9.142857 4.571429 18.285714 4.571429 9.714286 0 18.285714-5.142857z" p-id="9747" fill="#ffffff"></path></svg>